PathFileType	4	(X/Y/Z)	s04c0302.trc
DataRate	CameraRate	NumFrames	NumMarkers	Units	OrigDataRate	OrigDataStartFrame	OrigNumFrames
200	200	4	50	mm	200	750	2000
Frame#	Time	racr			lacr			c7			jug			rlel			rdr			llel			ldr			s2			lic			ric			lasi			rasi			rpsi			lpsi			rgt			lgt			rth1			rth2			rth3			rth4			rlfc			rmfc			rsh1			rsh2			rsh3			rsh4			rlmal			rmmal			rcal			rtoe			rmt5			lth1			lth2			lth4			lth3			llfc			lmfc			lsh1			lsh2			lsh3			lsh4			llmal			lmmal			lcal			ltoe			lmt5			SBIKE			LBIKE			RBIKE			
		X1	Y1	Z1	X2	Y2	Z2	X3	Y3	Z3	X4	Y4	Z4	X5	Y5	Z5	X6	Y6	Z6	X7	Y7	Z7	X8	Y8	Z8	X9	Y9	Z9	X10	Y10	Z10	X11	Y11	Z11	X12	Y12	Z12	X13	Y13	Z13	X14	Y14	Z14	X15	Y15	Z15	X16	Y16	Z16	X17	Y17	Z17	X18	Y18	Z18	X19	Y19	Z19	X20	Y20	Z20	X21	Y21	Z21	X22	Y22	Z22	X23	Y23	Z23	X24	Y24	Z24	X25	Y25	Z25	X26	Y26	Z26	X27	Y27	Z27	X28	Y28	Z28	X29	Y29	Z29	X30	Y30	Z30	X31	Y31	Z31	X32	Y32	Z32	X33	Y33	Z33	X34	Y34	Z34	X35	Y35	Z35	X36	Y36	Z36	X37	Y37	Z37	X38	Y38	Z38	X39	Y39	Z39	X40	Y40	Z40	X41	Y41	Z41	X42	Y42	Z42	X43	Y43	Z43	X44	Y44	Z44	X45	Y45	Z45	X46	Y46	Z46	X47	Y47	Z47	X48	Y48	Z48	X49	Y49	Z49	X50	Y50	Z50	
750	3.7500	814.053354	1326.134941	-106.330365	837.203865	1275.189576	-421.982977	840.012712	1377.844055	-275.885018	773.683022	1232.459400	-267.755385	609.994015	1132.253534	60.631778	707.992174	919.995834	-100.542956	616.259912	1141.588836	-587.256615	701.258490	909.652347	-486.716766	250.819429	1253.280471	-363.222861	433.353956	1194.653802	-474.831729	361.650546	1292.733807	-177.746339	448.832385	1151.488276	-410.662741	410.292977	1231.361828	-198.439470	277.796402	1302.562355	-330.808540	295.358922	1282.927303	-401.980724	320.616565	1244.034824	-152.626307	349.953512	1110.348044	-490.771567	434.077750	1135.161379	-110.563463	510.864657	1091.953815	-106.601830	556.975098	1021.614034	-92.792676	533.198096	1112.852206	-128.772734	636.640732	904.744735	-96.974547	633.505225	877.372271	-214.700000	533.949997	842.906813	-86.303305	473.880276	775.651637	-103.607047	392.219090	754.375006	-119.878641	496.000640	748.720853	-119.972683	272.732328	654.301992	-136.323046	304.697439	640.665994	-214.999151	211.008650	680.220306	-184.364711	379.307945	427.463976	-162.968461	319.165928	470.505753	-113.050805	340.707617	1027.762511	-501.615427	362.685079	943.601705	-499.941242	398.378261	944.356467	-493.410286	338.719480	858.094218	-495.610109	325.241439	688.592710	-472.169825	342.200348	664.236624	-360.517480	282.905917	565.663512	-490.203543	271.613109	481.970139	-469.657336	219.781402	410.111783	-467.863077	299.824411	474.920316	-443.009038	164.080781	273.617822	-462.232648	159.706595	277.407317	-375.257930	88.254551	294.274075	-426.789117	335.685149	118.120588	-405.710290	260.283978	123.215088	-472.372467	-185.255081	931.622343	-288.014834	-17.664496	79.024762	-485.439454	-17.512067	79.532449	-84.849848	
751	3.7550	815.519850	1323.452125	-104.777444	837.586669	1276.275840	-420.618759	840.875224	1376.881222	-274.176210	774.588473	1231.415774	-267.212010	609.348292	1131.369612	63.347207	707.891300	920.664521	-99.632585	617.375754	1142.395963	-586.272348	701.349750	909.470630	-486.426293	251.143145	1256.834644	-364.801674	435.412285	1197.265945	-476.192760	360.735280	1294.893435	-178.141261	448.992782	1153.881298	-410.620494	409.291440	1233.952149	-199.023602	278.195178	1306.044506	-332.597003	296.465822	1286.262777	-403.017986	319.142746	1247.592043	-153.822754	350.177619	1113.412385	-491.828146	432.975756	1139.831820	-111.910169	510.173331	1097.270932	-108.153007	557.208417	1027.403646	-95.053095	532.331804	1118.849153	-129.711657	637.518512	911.200765	-99.350778	635.511046	884.917702	-216.776642	537.390141	847.952001	-87.577816	478.837831	779.343596	-104.253942	397.842714	756.072988	-120.294509	501.541377	752.616127	-120.760390	279.927647	652.833571	-136.230136	311.413516	639.830150	-214.723285	217.578312	677.519019	-183.890227	390.524828	427.824751	-163.356115	329.491714	469.736464	-113.098849	340.479938	1031.523852	-502.473064	361.432847	947.103780	-500.693180	396.990322	947.403445	-493.881153	336.565562	861.825970	-496.753948	319.513349	692.459742	-473.553262	337.220810	667.298644	-361.373631	276.372138	569.662182	-491.601762	265.255319	485.977828	-470.940403	213.254143	414.203715	-469.008331	293.697196	478.800668	-444.719479	158.019586	277.545316	-462.886311	152.956233	281.799912	-376.888257	82.740513	299.663210	-427.299210	325.568781	117.233801	-405.819660	250.305570	124.014117	-472.426979	-185.258556	931.657453	-287.936241	-17.666176	79.064603	-485.421801	-17.496266	79.563476	-84.845999	
752	3.7600	817.121136	1320.418400	-102.975229	837.852630	1277.450110	-419.364317	841.593708	1375.971653	-272.437026	775.681830	1230.278621	-266.779586	608.569320	1130.291973	65.944837	707.688571	921.379732	-98.397447	618.378634	1143.198879	-585.247062	700.872718	908.753504	-484.400005	251.499624	1260.585894	-365.957083	437.719819	1200.036139	-477.054752	359.756080	1297.234267	-178.286280	450.571113	1156.802863	-413.405467	408.381471	1236.614285	-199.541212	278.592102	1309.749465	-333.717938	297.609390	1290.128924	-403.870439	317.902465	1251.446368	-154.792340	350.510096	1116.687024	-492.668131	431.759317	1144.095908	-113.547150	509.062507	1102.113388	-109.279562	556.058908	1032.387414	-96.429201	531.308178	1124.062839	-131.037710	641.625605	917.222888	-103.878809	636.954039	891.791446	-219.112662	540.413788	852.300211	-89.035805	483.434683	782.179059	-105.159873	402.920416	756.943454	-120.706051	506.577834	756.260530	-120.997781	286.588050	650.593530	-135.965078	318.600613	638.396110	-214.533266	223.552240	674.026574	-183.362553	401.399340	427.591347	-163.711990	339.566477	468.406376	-113.026658	340.554857	1035.380290	-502.965861	360.679110	950.806311	-501.257078	396.129317	950.743750	-494.111043	334.951864	865.673905	-497.886186	315.032916	696.594383	-474.660911	333.038262	670.509265	-362.131077	271.201283	574.097938	-492.771038	259.823457	490.319184	-472.162757	207.509408	418.813162	-470.108126	288.362371	482.988249	-446.185544	151.969858	282.062811	-463.776668	147.070763	286.555877	-377.636907	77.223413	305.520273	-427.957156	315.507041	117.191588	-405.902755	240.391293	125.445212	-472.395921	-185.236488	931.712824	-287.807715	-17.666886	79.118028	-485.410130	-17.522664	79.598779	-84.852758	
753	3.7650	818.753651	1316.908139	-101.526472	838.010003	1278.450998	-418.195174	842.289416	1374.701278	-270.759065	776.683146	1228.820375	-266.560375	607.602755	1129.062004	68.133248	707.279221	921.829104	-97.474459	619.207910	1143.941832	-584.223707	700.891203	908.658841	-484.285852	251.884910	1264.695308	-367.294017	437.483005	1202.590095	-475.997360	358.966408	1299.692191	-178.246959	450.444841	1159.465555	-413.416630	407.561087	1239.443569	-199.928602	279.002022	1313.843521	-334.050562	298.568069	1293.857538	-404.291521	317.079686	1255.671704	-155.257641	350.890091	1120.232046	-493.234892	430.363629	1148.774586	-114.214991	507.639350	1106.335191	-110.500870	554.454779	1036.341340	-98.310897	529.905496	1128.105551	-132.260057	642.339295	922.008787	-105.773918	637.696837	897.810186	-221.614516	542.888416	855.430144	-91.415655	487.178001	784.137634	-106.106476	407.212860	756.875158	-121.102316	510.845204	758.579563	-121.895477	292.664992	647.742792	-135.739427	324.583478	636.149033	-214.296761	229.089506	669.637438	-182.508489	412.208191	427.400033	-163.632156	349.383885	466.508937	-112.865490	340.951245	1039.336238	-503.238129	360.463070	954.583088	-501.632131	395.794508	954.253301	-494.140716	334.109478	869.650082	-498.949494	311.977970	700.971012	-475.747004	329.891863	673.552800	-362.899971	267.327815	578.634861	-494.020067	255.373638	494.824381	-473.321955	202.541762	423.722012	-471.292598	283.938678	487.303794	-447.525933	145.712188	287.112984	-464.817922	141.614747	291.634711	-378.242483	71.723776	311.860120	-428.754511	305.527909	117.970857	-405.896891	230.559420	127.747263	-472.364893	-185.230690	931.753796	-287.669691	-17.689170	79.157804	-485.404079	-17.522357	79.596509	-84.826806	
